<?xml version="1.0" encoding="UTF-8" standalone="no"?><!DOCTYPE svg PUBLIC "-//W3C//DTD SVG 1.1//EN" "http://www.w3.org/Graphics/SVG/1.1/DTD/svg11.dtd"><svg width="100%" height="100%" viewBox="0 0 676 101" version="1.1" xmlns="http://www.w3.org/2000/svg" xmlns:xlink="http://www.w3.org/1999/xlink" xml:space="preserve" xmlns:serif="http://www.serif.com/" style="fill-rule:evenodd;clip-rule:evenodd;stroke-linejoin:round;stroke-miterlimit:1.41421;"><path d="M570.563,95.482c-1.697,-1.698 -3.666,-3.415 -4.377,-3.815c-1.2,-0.676 -1.212,-0.915 -0.157,-3.429c0.624,-1.485 1.133,-3.366 1.133,-4.178c0,-0.829 0.479,-1.477 1.09,-1.477c1.445,0 1.462,-4.233 0.026,-6.285c-0.587,-0.836 -1.424,-3.443 -1.861,-5.793c-1.102,-5.918 -2.054,-24.843 -1.843,-36.613c0.097,-5.396 0.229,-12.962 0.293,-16.813l0.115,-7.003l7.997,-8.523l9.131,0.155l9.13,0.156l7.14,3.272c6.118,2.804 8.243,4.203 12.411,8.167c2.417,2.298 5.95,7.178 8.33,11.505c1.538,2.797 3.885,6.677 5.216,8.62c1.329,1.944 2.417,3.906 2.418,4.36c0.002,2.754 6.629,13.757 11.808,19.607c1.1,1.241 1.999,2.47 1.999,2.729c0,1.18 11.704,7.921 15.625,9c2.398,0.66 5.472,2.109 6.829,3.219l2.469,2.019l-1.196,3.51c-1.063,3.121 -1.075,3.642 -0.107,4.712c1.833,2.026 1.289,4.953 -1.599,8.598c-1.479,1.865 -3.071,3.724 -3.538,4.129c-1.104,0.958 -22.723,0.885 -24.66,-0.084c-1.836,-0.917 -50.319,0.192 -52.133,1.194c-0.695,0.383 -2.229,0.697 -3.41,0.697c-1.18,0 -2.349,0.326 -2.596,0.727c-0.877,1.418 -2.637,0.687 -5.683,-2.363Zm42.201,-19.156c10.966,-0.471 11.382,-0.643 9.605,-3.965c-0.53,-0.99 -0.506,-1.868 0.082,-2.966c0.691,-1.29 0.489,-2.282 -1.164,-5.743c-1.169,-2.445 -2.712,-4.506 -3.717,-4.965c-0.944,-0.43 -1.717,-1.227 -1.717,-1.773c0,-0.545 -0.813,-2.433 -1.807,-4.195c-0.994,-1.761 -1.992,-3.693 -2.218,-4.292c-0.225,-0.6 -0.884,-2.017 -1.462,-3.148c-0.58,-1.131 -1.053,-2.481 -1.053,-2.999c0,-0.519 -0.515,-1.37 -1.144,-1.892c-0.629,-0.521 -1.803,-2.242 -2.61,-3.824c-0.807,-1.582 -2.5,-3.836 -3.762,-5.009c-2.684,-2.494 -8.559,-5.657 -10.507,-5.657c-0.746,0 -1.596,-0.24 -1.89,-0.533c-1.02,-1.02 -6.592,-2.323 -7.224,-1.69c-0.359,0.359 -0.332,6.404 0.063,13.964c0.383,7.332 0.687,14.476 0.677,15.875c-0.042,5.35 1.024,22.77 1.435,23.434c0.261,0.421 3.91,0.523 9.244,0.258c4.848,-0.24 13.474,-0.636 19.169,-0.88Zm-162.341,19.078c-2.66,-1.46 -3.834,-1.623 -10.174,-1.419c-3.943,0.127 -8.739,0.556 -10.656,0.955c-1.919,0.398 -6.595,0.724 -10.392,0.724c-7.666,0 -10.381,-0.909 -11.763,-3.942c-0.469,-1.029 -1.232,-1.871 -1.697,-1.871c-1.602,0 -7.181,-3.168 -7.181,-4.078c0,-0.501 0.736,-1.137 1.635,-1.41c0.9,-0.274 2.226,-1.017 2.948,-1.652c1.06,-0.932 1.581,-0.985 2.709,-0.282c1.214,0.759 1.537,0.601 2.472,-1.208c1.043,-2.018 1.295,-2.096 8.372,-2.597c4.013,-0.285 8.259,-0.306 9.436,-0.047c1.253,0.275 2.834,0.086 3.817,-0.457c1.096,-0.605 5.458,-0.995 12.579,-1.125c5.995,-0.109 14.358,-0.403 18.583,-0.653l7.683,-0.454l1.896,2.252c1.638,1.947 1.868,2.824 1.693,6.437c-0.282,5.815 -1.668,8.668 -5.489,11.303c-2.835,1.952 -12.556,1.672 -16.471,-0.476Zm44.066,-0.683c-3.719,-0.718 -4.64,-1.429 -6.393,-4.927c-1.028,-2.051 -1.616,-2.461 -3.346,-2.336c-2.474,0.178 -4.796,-0.905 -4.796,-2.238c0,-1.756 5.225,-7.724 6.763,-7.724c0.814,0 2.021,-0.489 2.681,-1.087c1.86,-1.683 16.067,-2.454 37.067,-2.01c10.193,0.215 20.169,0.361 22.17,0.323c3.323,-0.064 3.749,0.122 4.906,2.137c1.402,2.444 1.663,5.393 0.538,6.089c-0.4,0.247 -0.548,1.657 -0.328,3.131c0.378,2.533 0.175,2.876 -3.669,6.21l-4.068,3.53l-5.596,-0.545c-6.933,-0.676 -34.823,-0.922 -39.335,-0.346c-1.829,0.234 -4.796,0.14 -6.594,-0.207Zm-393.107,-0.58c-0.97,-0.387 -7.019,-0.856 -13.444,-1.043c-6.427,-0.187 -14.136,-0.659 -17.134,-1.05c-8.122,-1.058 -22.283,-2.324 -27.386,-2.45c-3.908,-0.096 -4.786,-0.391 -6.733,-2.257c-1.233,-1.179 -2.571,-3.374 -2.976,-4.876c-0.485,-1.8 -1.471,-3.166 -2.895,-4.007c-2.463,-1.455 -2.636,-2.138 -0.995,-3.951c0.64,-0.708 1.123,-2.042 1.072,-2.964c-0.049,-0.923 -0.06,-4.049 -0.022,-6.947c0.059,-4.634 -0.092,-5.268 -1.256,-5.27c-0.782,-0.002 -1.917,-1.111 -2.776,-2.713c-1.323,-2.467 -1.88,-2.804 -6.177,-3.727c-9.04,-1.945 -10.175,-2.324 -10.175,-3.397c0,-1.131 0.058,-1.147 5.088,-1.459c1.798,-0.112 4.459,-0.426 5.912,-0.7c1.605,-0.301 3.277,-0.157 4.257,0.367c1.168,0.625 1.834,0.645 2.409,0.07c1.364,-1.364 3.768,-0.877 6.732,1.366c1.57,1.188 3.252,2.169 3.738,2.18c1.183,0.028 2.387,2.398 2.387,4.696c0,1.026 0.687,2.551 1.525,3.391c1.224,1.223 1.524,2.41 1.511,5.996c-0.009,2.458 0.131,5 0.311,5.649c0.451,1.627 6.02,2.053 28.391,2.173l18.293,0.098l2.603,-2.528c1.866,-1.812 2.78,-3.481 3.232,-5.896c0.346,-1.853 1.035,-3.859 1.533,-4.458c0.496,-0.598 0.71,-1.591 0.474,-2.205c-0.66,-1.717 -28.771,-1.421 -32.437,0.342c-1.399,0.673 -3.932,1.66 -5.629,2.195c-3.609,1.137 -4.821,0.431 -7.165,-4.181c-0.758,-1.49 -1.973,-3.315 -2.702,-4.057c-1.145,-1.167 -1.265,-2.151 -0.888,-7.268c0.761,-10.281 0.083,-25.746 -1.389,-31.716c-0.273,-1.112 0.057,-2.805 0.851,-4.361c1.125,-2.206 1.78,-2.628 4.931,-3.173c5.613,-0.972 15.452,-0.883 21.075,0.192c7.562,1.445 17.396,1.793 23.382,0.827c3.621,-0.584 6.054,-0.629 7.675,-0.139c1.305,0.393 3.333,0.988 4.505,1.323c1.791,0.511 2.285,1.192 3.075,4.242c0.518,1.998 0.951,5.103 0.96,6.903c0.011,1.798 0.507,4.206 1.105,5.351c1.423,2.73 1.324,7.463 -0.222,10.614l-1.236,2.522l-6.065,0.047c-4.825,0.038 -6.37,-0.218 -7.56,-1.25c-0.823,-0.713 -2.082,-1.296 -2.797,-1.296c-1.559,0 -3.565,-2.65 -3.561,-4.705c0.001,-0.81 0.673,-2.571 1.492,-3.914c2.701,-4.432 2.104,-4.826 -7.319,-4.826c-6.925,0 -9.176,-0.293 -13.22,-1.723c-2.729,-0.964 -5.606,-1.537 -6.541,-1.303c-1.618,0.406 -1.67,0.676 -1.682,8.627c-0.006,4.513 -0.274,8.881 -0.593,9.706c-0.988,2.549 4.45,3.225 25.99,3.225c19.762,0 23.342,0.435 24.274,2.952c0.269,0.724 0.245,5.671 -0.052,10.991c-0.347,6.224 -0.242,12.027 0.293,16.268c0.492,3.888 0.582,7.465 0.219,8.72c-0.338,1.171 -0.521,4.129 -0.407,6.575c0.143,3.025 -0.167,5.173 -0.969,6.722l-1.177,2.277l-5.977,-0.047c-3.286,-0.025 -6.769,-0.362 -7.738,-0.75Zm-68.534,-36.858c0.436,-1.308 -1.066,-1.033 -1.573,0.288c-0.272,0.708 -0.11,1.041 0.421,0.863c0.475,-0.158 0.994,-0.676 1.152,-1.151Zm115.916,36.949c-2.736,-0.65 -6.013,-2.651 -6.013,-3.672c0,-1.195 -2.128,-0.792 -4.301,0.815c-2.979,2.202 -4.517,1.566 -6.617,-2.739c-1.008,-2.066 -2.376,-4.356 -3.037,-5.088c-0.902,-0.995 -1.017,-1.662 -0.462,-2.655c0.408,-0.729 0.63,-1.383 0.494,-1.453c-3.595,-1.841 -4.248,-3.541 -4.631,-12.038c-0.185,-4.112 0.044,-5.808 0.98,-7.238c0.672,-1.027 1.282,-2.862 1.355,-4.077c0.074,-1.216 0.266,-4.363 0.427,-6.994c0.162,-2.631 0.537,-5.176 0.833,-5.655c0.296,-0.48 0.538,-3.526 0.538,-6.768c0,-4.994 0.272,-6.324 1.77,-8.697c0.972,-1.541 1.959,-2.802 2.192,-2.802c1.023,0 4.645,3.097 4.645,3.971c0,0.531 1.105,1.936 2.455,3.121c2.337,2.053 2.497,2.513 3.322,9.612c0.477,4.101 1.212,8.315 1.633,9.366c0.421,1.05 0.88,5.18 1.021,9.177c0.14,3.997 0.551,8.276 0.914,9.508c0.377,1.281 0.387,2.725 0.027,3.371c-1.265,2.259 1.003,2.966 6.531,2.033c2.776,-0.469 11.056,-0.886 18.4,-0.929c11.951,-0.069 13.6,0.07 15.716,1.32c1.302,0.768 2.565,2.218 2.809,3.221c0.245,1.004 1.049,2.604 1.787,3.557c1.61,2.078 1.702,4.359 0.31,7.69c-1.723,4.123 -8.174,6.402 -7.161,2.53c0.353,-1.352 0.187,-1.509 -1.15,-1.085c-1.002,0.318 -1.969,0.088 -2.701,-0.644c-1.594,-1.594 -3.915,-1.419 -5.898,0.444c-1.503,1.413 -2.383,1.566 -8.106,1.419c-5.052,-0.129 -6.618,0.075 -7.352,0.96c-1.009,1.217 -6.475,1.43 -10.73,0.419Zm-10.719,-7.259c-0.237,-0.383 -0.041,-1.321 0.435,-2.084c0.899,-1.439 0.458,-3.759 -0.714,-3.759c-0.698,0 -1.581,5.043 -1.048,5.995c0.168,0.3 0.632,0.545 1.032,0.545c0.399,0 0.532,-0.314 0.295,-0.697Zm73.847,5.007c-3.657,-1.137 -8.072,-4.152 -8.769,-5.987c-0.339,-0.892 -0.606,-4.907 -0.592,-8.919c0.02,-5.619 -0.252,-7.721 -1.186,-9.146c-1.65,-2.52 -2.398,-12.551 -1.203,-16.17c0.61,-1.847 0.868,-7.254 0.796,-16.67c-0.094,-12.33 0.071,-14.521 1.44,-19.012c1.183,-3.886 2.299,-5.851 4.761,-8.381c2.814,-2.891 3.531,-3.268 5.726,-3.013c3.188,0.373 3.909,1.282 4.81,6.069c0.402,2.136 1.036,5.517 1.409,7.516c1.565,8.389 2.026,18.493 1.628,35.68c-0.291,12.532 -0.182,18.388 0.349,18.716c0.426,0.262 4.645,0.673 9.377,0.913c6.9,0.348 8.879,0.225 9.987,-0.62c0.902,-0.686 1.172,-1.396 0.777,-2.035c-0.335,-0.54 -0.688,-1.653 -0.786,-2.472c-0.099,-0.82 -0.405,-2.392 -0.68,-3.492c-0.406,-1.625 -0.024,-2.581 2.037,-5.088c3.503,-4.257 14.833,-11.974 15.948,-10.86c0.599,0.6 0.617,1.302 0.062,2.52c-0.58,1.274 -0.521,2.029 0.243,3.072c0.912,1.247 0.743,1.66 -1.695,4.157l-2.707,2.772l2.56,2.559c1.408,1.408 5.812,4.785 9.788,7.503c6.268,4.288 7.486,5.465 9.18,8.876c2.509,5.054 2.518,6.722 0.045,8.676c-1.666,1.317 -2.603,1.511 -5.632,1.159c-1.999,-0.232 -8.048,0.058 -13.444,0.644c-12.786,1.387 -40.975,2.046 -44.229,1.033Zm106.473,-0.556c-0.717,-0.792 -2.179,-1.822 -3.25,-2.29c-2.183,-0.951 -7.506,-8.652 -8.236,-11.919c-0.263,-1.171 -0.142,-2.866 0.268,-3.766c0.567,-1.244 0.467,-2.034 -0.417,-3.297c-0.782,-1.117 -1.031,-2.506 -0.762,-4.244c0.243,-1.562 -0.041,-3.631 -0.718,-5.231c-1.012,-2.393 -1.594,-2.787 -6.047,-4.091c-6.244,-1.83 -12.63,-3.034 -17.283,-3.26c-3.09,-0.149 -3.634,-0.392 -3.634,-1.629c0,-1.249 0.656,-1.526 4.658,-1.967c2.562,-0.283 6.159,-0.993 7.994,-1.577c4.397,-1.403 11.429,-2.633 15.046,-2.633c3.297,0 10.104,3.089 11.407,5.177c0.468,0.75 1.551,1.363 2.405,1.363c2.33,0 3.511,1.75 2.119,3.142c-0.682,0.682 -1.128,2.476 -1.147,4.619c-0.017,1.927 -0.473,5.139 -1.012,7.138c-0.538,1.998 -0.721,3.909 -0.407,4.247c0.313,0.337 2.649,0.401 5.189,0.142c2.541,-0.26 15.015,-0.699 27.721,-0.977c19.361,-0.424 23.213,-0.682 23.789,-1.596c0.968,-1.535 0.828,-2.888 -0.605,-5.814l-1.246,-2.543l-7.258,0.038c-3.992,0.02 -9.792,0.587 -12.887,1.258c-3.095,0.672 -9.472,1.297 -14.171,1.391c-7.103,0.14 -8.973,-0.056 -11.087,-1.166c-4.919,-2.579 -5.065,-2.876 -4.661,-9.54c0.351,-5.803 0.308,-6.019 -1.121,-5.645c-1.264,0.331 -1.485,0.048 -1.485,-1.906c0,-1.261 0.64,-3.548 1.423,-5.083c1.413,-2.769 1.413,-2.817 -0.001,-6.684c-0.891,-2.441 -1.263,-4.748 -0.995,-6.178c0.321,-1.708 0.068,-2.624 -1.003,-3.642c-0.787,-0.748 -1.605,-2.505 -1.82,-3.903c-0.214,-1.4 -0.616,-3.881 -0.893,-5.515c-0.362,-2.134 -0.169,-3.617 0.684,-5.268c1.173,-2.268 1.261,-2.299 6.595,-2.299c3.097,0 6.891,-0.506 8.884,-1.187c2.612,-0.891 6.46,-1.207 15.468,-1.271l11.991,-0.085l-0.058,1.634c-0.031,0.9 -0.006,1.636 0.055,1.636c0.061,0 3.47,-0.503 7.578,-1.116c4.106,-0.614 8.063,-0.927 8.791,-0.696c0.73,0.231 2.469,1.685 3.866,3.232c2.859,3.163 3.921,8.139 3.142,14.716c-0.308,2.603 -0.145,3.926 0.573,4.644c1.853,1.853 0.311,4.819 -3.641,7.001c-4,2.207 -5.812,2.399 -11.1,1.179c-3.408,-0.787 -3.645,-0.992 -3.986,-3.453c-0.198,-1.438 -0.789,-4.018 -1.313,-5.731c-0.776,-2.543 -0.78,-3.392 -0.017,-4.612c0.788,-1.262 0.738,-1.712 -0.319,-2.879c-1.075,-1.189 -2.3,-1.384 -8.681,-1.384c-5.717,0 -7.638,0.251 -8.334,1.09c-0.498,0.599 -1.794,1.09 -2.879,1.09c-1.401,0 -2.215,0.527 -2.803,1.817c-0.455,0.999 -1.177,1.817 -1.602,1.817c-0.76,0 -0.559,15.654 0.209,16.423c0.186,0.186 8.805,0.391 19.15,0.454c13.369,0.081 19.27,-0.136 20.398,-0.75c2.061,-1.123 4.356,-1.104 5.071,0.042c0.618,0.992 1.431,6.244 2.108,13.627c0.24,2.598 0.855,5.868 1.369,7.267c0.645,1.757 0.853,5.579 0.675,12.355c-0.41,15.499 -0.401,15.468 -4.612,18.379c-2.035,1.407 -12.67,1.803 -13.474,0.502c-0.252,-0.408 -1.661,-0.687 -3.132,-0.622c-1.47,0.066 -5.78,-0.137 -9.577,-0.45c-9.982,-0.826 -13.001,-0.823 -17.078,0.016c-1.999,0.411 -5.002,0.555 -6.676,0.321c-2.88,-0.404 -10.049,0.178 -14.057,1.141c-1.306,0.314 -2.214,0.025 -3.141,-0.999Zm40.204,-85.177c-1.723,-1.089 -2.654,-0.751 -1.122,0.408c0.77,0.583 1.578,0.882 1.796,0.664c0.217,-0.217 -0.086,-0.7 -0.674,-1.072Zm-175.848,61.894c-5.024,-3.541 -6.572,-4.453 -7.548,-4.453c-0.588,0 -1.663,-0.757 -2.392,-1.682c-0.728,-0.925 -2.257,-2.293 -3.395,-3.038c-1.843,-1.207 -2.022,-1.656 -1.633,-4.093c0.241,-1.504 0.151,-3.49 -0.198,-4.41c-0.35,-0.922 -1.027,-2.983 -1.504,-4.582c-0.477,-1.599 -1.235,-3.655 -1.683,-4.567c-0.609,-1.241 -0.596,-2.268 0.048,-4.05c0.475,-1.313 0.863,-3.084 0.863,-3.937c0,-0.852 0.391,-2.406 0.868,-3.452c1.144,-2.512 0.402,-2.932 -6.202,-3.516c-4.524,-0.399 -5.441,-0.731 -7.02,-2.538c-1.656,-1.896 -4.778,-3.209 -7.086,-2.981c-5.96,0.589 -21.958,-1.551 -24.618,-3.294c-0.972,-0.637 -1.726,-1.847 -1.726,-2.77c0,-0.901 -0.654,-2.198 -1.453,-2.883c-0.8,-0.685 -1.454,-1.73 -1.454,-2.323c0,-1.716 3.947,-3.296 8.233,-3.296c2.169,0 5.179,-0.516 6.689,-1.147c2.2,-0.918 6.868,-1.22 23.525,-1.516c23.372,-0.416 22.881,-0.419 28.586,0.179c3.504,0.368 4.476,0.8 6.082,2.71c1.803,2.142 1.879,2.544 1.342,7.018c-1.112,9.265 -0.884,18.952 0.573,24.357c0.881,3.265 1.499,8.565 1.719,14.739c0.399,11.2 -0.311,13.681 -4.488,15.673c-3.124,1.49 -3.828,1.473 -6.128,-0.148Zm258.717,-7.323c-0.6,-0.408 -3.216,-0.748 -5.814,-0.757c-2.598,-0.008 -5.973,-0.361 -7.499,-0.786c-1.927,-0.534 -5.018,-0.545 -10.11,-0.035c-6.063,0.607 -7.784,0.548 -9.917,-0.343c-3.183,-1.33 -5.001,-2.933 -6.407,-5.652c-0.965,-1.868 -0.952,-2.423 0.119,-5.229c2.124,-5.561 3.602,-6.853 7.886,-6.888c2.07,-0.018 5.232,-0.315 7.029,-0.662c2.165,-0.418 5.104,-0.31 8.721,0.318c8.261,1.436 34.462,0.343 39.319,-1.641c3.062,-1.25 5.657,0.684 8.374,6.244c0.257,0.526 0.097,1.328 -0.355,1.78c-0.454,0.453 -0.824,1.588 -0.824,2.524c0,2.35 -2.5,7.031 -4.664,8.734c-2.419,1.902 -9.604,3.345 -13.959,2.802c-5.074,-0.632 -5.449,-0.638 -8.266,-0.127c-1.399,0.253 -3.034,0.127 -3.633,-0.282Zm100.652,-0.888c-3.243,-1.286 -5.578,-1.455 -21.73,-1.566c-13.272,-0.093 -18.406,0.109 -19.259,0.758c-1.769,1.348 -15.622,1.244 -16.76,-0.126c-0.483,-0.582 -0.67,-1.395 -0.416,-1.807c0.255,-0.412 -0.413,-2.242 -1.483,-4.068c-1.934,-3.301 -1.938,-3.338 -0.671,-6.148c1.753,-3.886 4.171,-5.96 8.206,-7.037c5.188,-1.386 40.288,-2.664 47.2,-1.718c5.83,0.796 12.684,3.09 14.905,4.987c1.555,1.328 1.641,3.285 0.197,4.483c-0.592,0.491 -1.083,1.593 -1.091,2.451c-0.034,3.53 -0.993,8.17 -2.006,9.718c-1.288,1.964 -2.293,1.975 -7.092,0.073Zm-38.517,-33.267c-0.799,-0.323 -3.138,-0.421 -5.198,-0.218c-3.534,0.348 -3.891,0.223 -6.323,-2.209c-1.418,-1.417 -3.167,-2.764 -3.887,-2.993c-2.109,-0.669 -3.289,-3.308 -3.487,-7.792c-0.273,-6.203 0.891,-7.175 8.587,-7.175c4.47,0 6.437,-0.315 7.76,-1.241c1.447,-1.014 3.036,-1.191 8.7,-0.969c8.003,0.315 13.909,0.228 25.09,-0.37c7.323,-0.391 8.478,-0.267 13.92,1.503c8.455,2.751 9.095,3.501 8.529,10.01c-0.25,2.881 -0.88,5.692 -1.399,6.246c-1.213,1.295 -6.874,2.255 -15.592,2.647c-3.797,0.169 -8.301,0.688 -10.009,1.152c-1.951,0.529 -6.341,0.709 -11.812,0.483c-6.562,-0.27 -9.02,-0.121 -9.977,0.605c-1.432,1.087 -2.784,1.175 -4.902,0.321Zm-52.311,-1.867l-4.347,-1.842l-23.823,0.131c-13.103,0.071 -24.012,-0.059 -24.244,-0.29c-0.231,-0.232 -0.099,-0.998 0.295,-1.701c0.393,-0.703 0.463,-1.791 0.155,-2.416c-2.68,-5.442 -2.991,-6.755 -1.887,-7.976c0.624,-0.689 0.92,-1.877 0.688,-2.761l-0.406,-1.552l30.411,-0.402c16.727,-0.222 32.638,-0.603 35.36,-0.847c4.402,-0.397 5.229,-0.257 7.48,1.254c2.246,1.508 2.482,1.965 2.104,4.061c-0.258,1.43 -0.127,2.362 0.333,2.362c1.193,0 0.887,1.975 -0.381,2.462c-0.741,0.285 -0.983,0.929 -0.693,1.847c0.443,1.393 0.039,2.072 -4.086,6.865c-1.781,2.069 -2.32,2.249 -7.267,2.441c-4.397,0.17 -6.116,-0.12 -9.692,-1.636Z" style="fill:#ecc05e;fill-rule:nonzero;stroke:#000;stroke-width:1px;"/></svg>